<svg xmlns="http://www.w3.org/2000/svg" id="Layer_1" viewBox="0 0 94.5 13.4"><style>.st0{fill:#ed1c24}</style><path d="M11.9,9.9c1.9,0,2.6-0.6,3-2.1c0.4-1.6,0.3-1.1,0.7-2.4c0.3-1.2,0-2-1.9-2h-7L4.9,9.9H11.9 M0,13.2L3.5,0.2h11.9	c5.9,0,4.6,3.3,4.4,4.3C19,7.3,19,7.3,19,7.3L14.4,13c0,0-0.7,0.2-2.7,0.2H0"/><path d="M23.7,8.1h5.1l-1.3-4.9L23.7,8.1z M25.7,0.2h5.2l3.7,13.1h-4.4l-0.6-2.3h-8.1l-1.8,2.3h-4.5L25.7,0.2"/><polygon points="41.3 4.1 39.8 5.5 36.9 .2 32 .2 37 8.7 35.7 13.2 39.7 13.2 40.9 8.7 46.1 4.1"/><polygon points="42.9 2.7 42.1 3.4 46.9 3.4 47.6 2.7" class="st0"/><polygon points="49.8 .8 50.5 .2 45.7 .2 44.9 .8" class="st0"/><polygon points="44.7 1.1 44 1.7 48.8 1.6 49.5 1.1" class="st0"/><polygon points="43.8 1.9 43.1 2.5 47.9 2.5 48.6 1.9" class="st0"/><polygon points="47.5 13.2 51.5 13.2 54.1 3.4 59.8 3.4 60.6 .2 51.5 .2 47.9 3.4 50.1 3.4"/><path d="M63.8,3.4c-1.9,0-2.8,0.9-3.1,1.9c-0.3,1-0.3,0.9-0.6,2.3c-0.5,1.8-0.2,2.5,1.8,2.5h4.6c2.3,0,2.8-0.6,3.3-2.4	c0.5-1.8,0.1-0.4,0.5-1.9c0.4-1.5,0.2-2.4-2-2.4H63.8 M60.3,4.1l1-3.9c0,0,0.2-0.2,3.1-0.2c2.8,0,1.8,0,5.5,0c3.7,0,5.8,0.7,4.7,4.9	c0,0-0.1,0.3-1,3.9c-1,3.6-3.2,4.6-7.2,4.6H60c-5.4,0-4.9-2.7-4.4-4.7c0.6-2.2,1.3-4.6,1.3-4.6H60.3"/><polygon points="73.2 13.2 77.2 13.2 79.7 3.8 84.7 13.2 91 13.2 94.5 .2 90.5 .2 87.9 9.7 82.9 .2 76.7 .2"/></svg>