<svg width="500" height="60.58" xmlns="http://www.w3.org/2000/svg">

 <g>
  <title>background</title>
  <rect fill="none" id="canvas_background" height="62.58" width="502" y="-1" x="-1"/>
 </g>
 <g>
  <title>Layer 1</title>
  <path stroke="null" id="svg_1" fill="#6cb33f" d="m375.83641,5.10728l-12.40764,46.36006l33.7164,0l12.39921,-46.36006l-33.70798,0zm-338.80772,27.39458l37.81295,0l8.55554,-8.4881l-44.09263,0l2.04827,-7.68734l44.62366,0l11.08427,-11.21913l-68.49488,0c-14.11032,0 -21.45206,4.49271 -24.0398,14.17775l-3.9111,14.5992c-3.01762,11.27814 5.37777,17.59153 17.59153,17.59153l58.1608,0l11.44672,-11.44672l-52.79989,0l2.01456,-7.52719zm87.66265,-2.68888c1.78697,-6.67585 10.03063,-13.84901 21.6375,-13.84901c6.04367,0.04215 19.21835,0.08429 26.07964,0.47203l11.34557,-11.32871c-7.28274,-0.39617 -38.01525,-0.96092 -46.41906,-0.96092c-22.48041,0 -42.32252,9.69347 -46.43592,25.07658c-3.60766,13.48656 10.31722,22.75857 24.73098,22.75857c10.37622,0 37.66965,-0.09272 47.62442,-0.53103l11.22756,-11.20228c-5.42834,0.18544 -25.55703,0.6659 -36.88575,0.6659c-9.34787,0 -14.4812,-5.05746 -12.84595,-11.10113l-0.059,0zm104.51242,-26.81297c-27.26814,0 -48.30718,9.90419 -52.41215,25.2873c-3.74252,13.94173 12.0199,25.77619 40.80528,25.77619c23.54248,0 48.04588,-8.47125 52.7746,-25.99535c3.93639,-14.72564 -13.09039,-25.06815 -41.16773,-25.06815zm8.69883,25.65818c-2.68045,10.01377 -9.154,14.54863 -19.13406,14.54863c-7.62834,0 -12.7448,-3.73409 -9.75247,-14.92794c2.52873,-9.48274 10.11492,-13.94173 18.21529,-13.94173c8.61454,0 13.28426,4.54329 10.67124,14.32104zm97.4657,-23.55091l-53.69337,0l-12.40764,46.36006l35.99226,0l3.04291,-11.37086l21.16547,0c18.70418,0 32.78077,-3.82681 36.41372,-17.41452c2.54559,-9.49117 -4.08811,-17.57468 -30.51335,-17.57468zm-0.08429,17.86969c-1.60996,6.01838 -7.00458,6.64213 -17.70111,6.64213l-6.50727,0l3.75938,-14.06817l6.96244,0c10.4858,0 15.07123,1.51724 13.48656,7.42604zm146.21119,-17.86969l-57.18302,0l-11.57316,11.52258l51.70411,0l-1.9977,7.45133l-36.60759,0c-8.31109,0 -15.77928,2.14942 -18.60303,12.6858s3.59923,14.70878 15.90571,14.70878l67.50867,0c1.55938,-5.81608 4.79616,-17.93713 7.72106,-28.84438c3.06819,-11.53101 -5.17547,-17.5241 -16.87506,-17.5241zm-23.44133,35.2505l-14.12717,0c-4.30727,0 -5.21761,-1.68582 -4.577,-4.10497s2.00613,-3.75095 5.53792,-3.75095l15.27353,0l-2.10728,7.85592z"/>
 </g>
</svg>