<svg width="500" height="58" xmlns="http://www.w3.org/2000/svg">

 <g>
  <title>background</title>
  <rect fill="none" id="canvas_background" height="60" width="502" y="-1" x="-1"/>
 </g>
 <g>
  <title>Layer 1</title>
  <g stroke="null" id="svg_9">
   <path stroke="null" id="svg_1" fill="#231f20" d="m1.42857,54.10477l11.9023,-50.84556l45.61892,0c13.55994,0 16.73991,3.78889 17.97468,10.71264c0.98669,5.57621 -0.81191,13.58814 -4.41473,18.56105c-2.74582,3.81708 -7.10981,7.56087 -14.71578,7.56087l-24.49811,0l-3.28145,14.011l-28.58583,0zm34.12257,-23.65238l6.4445,0c1.89445,0 3.60283,0 5.69461,-1.97902s3.70432,-7.7131 3.60283,-11.41178c-0.0733,-2.08051 -1.08254,-3.8791 -4.30761,-3.8791l-7.44246,0l-3.99187,17.2699z"/>
   <path stroke="null" id="svg_2" fill="#231f20" d="m117.75654,2.38528c13.1991,0 16.32268,0.33829 19.05722,1.12765c7.41427,1.99593 12.74804,6.6813 12.66347,18.55542c-0.0733,8.28256 -2.77401,17.85628 -7.46502,23.84971c-2.77401,3.61411 -7.89352,6.61928 -11.27646,7.60597s-10.28413,1.27424 -21.16592,1.27424s-15.71375,-0.16351 -19.48572,-1.0769c-6.57418,-1.58434 -12.35336,-7.37481 -12.96793,-17.47851c-0.29883,-4.9109 2.182,-19.06849 7.67927,-25.77235c2.81912,-3.38294 6.12876,-6.46141 12.49996,-7.43683c4.98983,-0.77244 9.86126,-0.6484 20.46114,-0.6484zm-7.68491,10.67317c-4.58388,4.58952 -7.3297,21.22794 -7.28459,27.57658c0.03383,3.38294 2.18763,4.67973 4.68537,5.07441a23.86099,23.86099 0 0 0 5.50855,0.13532c3.94676,-0.62584 5.46345,-4.13282 6.86736,-7.49321c1.5787,-3.78889 3.69868,-14.28728 3.98059,-18.69073c0.23681,-3.08411 -0.18042,-5.59312 -1.48285,-6.6813c-0.96414,-0.84573 -2.18763,-1.88881 -5.38451,-1.88881c-3.39421,-0.00564 -5.2943,0.36648 -6.88992,1.96774z"/>
   <polygon stroke="null" id="svg_3" fill="#231f20" points="170.17518615722656,15.48852875828743 151.23072814941406,15.48852875828743 154.09495544433594,3.25356724858284 223.94699096679688,3.25356724858284 221.082763671875,15.53927281498909 200.88662719726562,15.53927281498909 191.74703979492188,54.10476067662239 161.00743103027344,54.10476067662239 170.17518615722656,15.48852875828743 "/>
   <polygon stroke="null" id="svg_4" fill="#231f20" points="215.0272979736328,54.04274132847786 226.98036193847656,3.1802702248096466 289.49139404296875,3.1802702248096466 286.7568664550781,14.952896624803543 252.18324279785156,14.952896624803543 250.2267608642578,23.36513665318489 284.77783203125,23.36513665318489 282.4436340332031,33.31097176671028 247.90382385253906,33.31097176671028 245.95298767089844,41.706292659044266 280.4927978515625,41.706292659044266 277.6229248046875,54.04274132847786 215.0272979736328,54.04274132847786 "/>
   <polygon stroke="null" id="svg_5" fill="#231f20" points="282.7142639160156,54.10476067662239 294.6673278808594,3.25356724858284 316.9833984375,3.25356724858284 335.9504089355469,23.647048503160477 340.6132507324219,3.25356724858284 359.18560791015625,3.25356724858284 347.4411315917969,54.10476067662239 327.8595886230469,54.10476067662239 306.0903625488281,30.621539622545242 300.4972229003906,54.10476067662239 282.7142639160156,54.10476067662239 "/>
   <polygon stroke="null" id="svg_6" fill="#231f20" points="364.5870056152344,3.25356724858284 427.8987121582031,3.25356724858284 394.3794250488281,41.79086831212044 420.2644958496094,41.79086831212044 417.4510498046875,54.06529000401497 350.2828063964844,54.06529000401497 383.84722900390625,15.69150498509407 361.5931091308594,15.69150498509407 364.5870056152344,3.25356724858284 "/>
   <path stroke="null" id="svg_7" fill="#231f20" d="m468.94499,54.04275l29.35263,0l-12.25187,-50.78354l-36.6485,0l-30.19272,50.84556l22.36686,0l5.00675,-8.76745l21.17155,0l1.1953,8.70543zm-15.49386,-20.86145l10.09807,-17.81681l2.47518,17.80553l-12.57325,0.01128z"/>
   <path stroke="null" id="svg_8" fill="#231f20" d="m456.76641,39.15782"/>
  </g>
 </g>
</svg>